<svg width="278" height="66" viewBox="0 0 278 66" fill="none" xmlns="http://www.w3.org/2000/svg">
<g opacity="0.9" filter="url(#filter0_d)">
<rect x="4" width="58" height="58" rx="10" fill="#E7FFFF"/>
</g>
<rect x="7.19" y="36.83" width="28.71" height="9.57" rx="4.785" fill="#405CD6" fill-opacity="0.94"/>
<path d="M18.79 29.145C18.79 26.5023 20.9323 24.36 23.575 24.36H42.715C45.3577 24.36 47.5 26.5023 47.5 29.145C47.5 31.7877 45.3577 33.93 42.715 33.93H23.575C20.9323 33.93 18.79 31.7877 18.79 29.145Z" fill="#5BA8E1" fill-opacity="0.94"/>
<rect x="29.52" y="11.89" width="28.71" height="9.57" rx="4.785" fill="#6ACDEB" fill-opacity="0.94"/>
<path d="M103.688 36.78V24.432C103.688 18.78 99.512 15.036 93.5 15.036H81.728V46.176H87.884V45.06C88.748 45.744 89.792 46.176 90.692 46.176H93.5C99.512 46.176 103.688 42.396 103.688 36.78ZM97.532 37.068C97.532 39.588 95.516 41.208 93.248 41.208H87.884V19.968H93.248C95.516 19.968 97.532 21.624 97.532 24.18V37.068ZM126.018 34.368V31.128C126.018 25.872 122.742 21.768 116.694 21.768H115.434C109.602 21.768 106.254 25.692 106.254 30.948V37.356C106.254 43.62 110.718 46.608 115.578 46.608H117.198C121.446 46.608 124.938 43.98 125.838 39.588H119.646C119.286 40.704 118.566 41.64 116.982 41.64H115.542C113.886 41.64 112.374 40.272 112.374 37.896V37.68H122.526C124.902 37.68 126.018 36.384 126.018 34.368ZM119.898 32.748H112.374V31.416C112.374 28.14 113.706 26.7 115.47 26.7H116.73C118.494 26.7 119.898 28.176 119.898 31.344V32.748ZM148.832 22.524H142.388L137.78 37.428L133.136 22.524H126.692L134.72 46.248H140.696L148.832 22.524ZM172.052 37.068C172.052 31.2 168.488 29.148 163.412 27.888L159.344 26.808C157.832 26.412 156.5 25.98 156.5 23.136C156.5 20.868 157.94 19.608 159.812 19.608H161.216C163.484 19.608 164.924 21.3 164.924 24.324H171.044C171.044 17.952 167.264 14.676 161.252 14.676H160.172C154.268 14.676 150.236 17.448 150.236 23.28C150.236 29.112 153.332 31.056 158.264 32.208L162.656 33.252C164.06 33.576 165.932 34.296 165.932 37.068C165.932 40.092 164.384 41.568 162.008 41.568H160.208C157.94 41.568 156.536 39.876 156.536 36.924H150.416C150.416 43.224 153.98 46.536 160.172 46.536H162.08C168.128 46.536 172.052 42.864 172.052 37.068ZM190.099 45.312V40.272C187.651 41.316 186.175 41.496 185.131 41.532C183.691 41.568 183.547 40.884 183.547 38.688V27.348H189.811V22.452H183.547V15.036H177.463V22.452H173.143V27.348H177.463V39.192C177.463 44.628 180.559 46.86 184.735 46.572C185.959 46.5 188.155 46.176 190.099 45.312ZM211.477 46.248V30.408C211.477 24.396 207.445 21.768 202.441 21.768H200.929C195.637 21.768 192.109 24.936 192.109 28.428H198.265C198.265 27.348 199.597 26.7 200.929 26.7H202.261C203.701 26.7 205.357 27.744 205.357 29.652V30.192C204.565 29.94 203.521 29.796 202.801 29.796H199.993C195.277 29.796 191.893 32.964 191.893 36.996V38.904C191.893 43.044 195.277 46.536 199.921 46.536H202.837C203.665 46.536 204.601 46.248 205.465 45.708V46.248H211.477ZM205.357 40.344C205.357 41.028 204.205 41.604 203.485 41.568H200.569C199.057 41.568 198.013 40.452 198.013 38.904V37.032C198.013 35.556 199.057 34.8 200.569 34.8H202.981C203.953 34.8 204.889 34.98 205.357 35.34V40.344ZM222.423 18.096C222.423 14.964 220.983 14.28 218.643 14.28C216.303 14.28 214.863 14.964 214.863 18.096C214.863 21.228 216.303 21.912 218.643 21.912C220.983 21.912 222.423 21.228 222.423 18.096ZM221.703 46.176V24.36H215.619V46.176H221.703ZM239.511 27.06V21.876C235.335 21.696 233.211 22.812 231.987 24.036V22.524H225.867V46.248H231.987V33C231.987 29.976 234.435 26.844 239.511 27.06ZM259.915 39.264C259.915 34.62 257.539 32.82 253.111 31.884L248.755 30.984C247.495 30.696 246.991 29.868 246.991 28.608C246.991 27.42 248.035 26.7 249.475 26.7H250.843C252.391 26.7 253.291 27.996 253.363 29.544H259.555C259.447 24.828 256.351 21.768 250.699 21.768H249.439C243.787 21.768 240.619 24.216 240.619 28.896C240.619 33.684 243.427 35.196 246.811 35.916L251.887 36.996C253.255 37.248 253.651 38.004 253.651 39.228C253.651 40.488 253.363 41.64 251.347 41.64H249.295C247.711 41.64 246.847 40.56 246.811 39.12H240.547C240.727 43.944 244.903 46.608 248.719 46.608H251.383C256.927 46.608 259.915 43.62 259.915 39.264Z" fill="#3F7EF9"/>
<defs>
<filter id="filter0_d" x="0" y="0" width="66" height="66" filterUnits="userSpaceOnUse" color-interpolation-filters="sRGB">
<feFlood flood-opacity="0" result="BackgroundImageFix"/>
<feColorMatrix in="SourceAlpha" type="matrix" values="0 0 0 0 0 0 0 0 0 0 0 0 0 0 0 0 0 0 127 0" result="hardAlpha"/>
<feOffset dy="4"/>
<feGaussianBlur stdDeviation="2"/>
<feComposite in2="hardAlpha" operator="out"/>
<feColorMatrix type="matrix" values="0 0 0 0 0 0 0 0 0 0 0 0 0 0 0 0 0 0 0.25 0"/>
<feBlend mode="normal" in2="BackgroundImageFix" result="effect1_dropShadow"/>
<feBlend mode="normal" in="SourceGraphic" in2="effect1_dropShadow" result="shape"/>
</filter>
</defs>
</svg>
