<svg width="271" height="54" viewBox="0 0 271 54" fill="none" xmlns="http://www.w3.org/2000/svg">
<rect x="0.190002" y="26.83" width="28.71" height="9.57" rx="4.785" fill="#405CD6" fill-opacity="0.94"/>
<path d="M11.79 19.145C11.79 16.5023 13.9323 14.36 16.575 14.36H35.715C38.3577 14.36 40.5 16.5023 40.5 19.145V19.145C40.5 21.7877 38.3577 23.93 35.715 23.93H16.575C13.9323 23.93 11.79 21.7877 11.79 19.145V19.145Z" fill="#5BA8E1" fill-opacity="0.94"/>
<rect x="22.52" y="1.89001" width="28.71" height="9.57" rx="4.785" fill="#6ACDEB" fill-opacity="0.94"/>
<path d="M96.688 26.78V14.432C96.688 8.78 92.512 5.036 86.5 5.036H74.728V36.176H80.884V35.06C81.748 35.744 82.792 36.176 83.692 36.176H86.5C92.512 36.176 96.688 32.396 96.688 26.78ZM90.532 27.068C90.532 29.588 88.516 31.208 86.248 31.208H80.884V9.968H86.248C88.516 9.968 90.532 11.624 90.532 14.18V27.068ZM119.018 24.368V21.128C119.018 15.872 115.742 11.768 109.694 11.768H108.434C102.602 11.768 99.2544 15.692 99.2544 20.948V27.356C99.2544 33.62 103.718 36.608 108.578 36.608H110.198C114.446 36.608 117.938 33.98 118.838 29.588H112.646C112.286 30.704 111.566 31.64 109.982 31.64H108.542C106.886 31.64 105.374 30.272 105.374 27.896V27.68H115.526C117.902 27.68 119.018 26.384 119.018 24.368ZM112.898 22.748H105.374V21.416C105.374 18.14 106.706 16.7 108.47 16.7H109.73C111.494 16.7 112.898 18.176 112.898 21.344V22.748ZM141.832 12.524H135.388L130.78 27.428L126.136 12.524H119.692L127.72 36.248H133.696L141.832 12.524ZM165.052 27.068C165.052 21.2 161.488 19.148 156.412 17.888L152.344 16.808C150.832 16.412 149.5 15.98 149.5 13.136C149.5 10.868 150.94 9.608 152.812 9.608H154.216C156.484 9.608 157.924 11.3 157.924 14.324H164.044C164.044 7.952 160.264 4.676 154.252 4.676H153.172C147.268 4.676 143.236 7.448 143.236 13.28C143.236 19.112 146.332 21.056 151.264 22.208L155.656 23.252C157.06 23.576 158.932 24.296 158.932 27.068C158.932 30.092 157.384 31.568 155.008 31.568H153.208C150.94 31.568 149.536 29.876 149.536 26.924H143.416C143.416 33.224 146.98 36.536 153.172 36.536H155.08C161.128 36.536 165.052 32.864 165.052 27.068ZM183.099 35.312V30.272C180.651 31.316 179.175 31.496 178.131 31.532C176.691 31.568 176.547 30.884 176.547 28.688V17.348H182.811V12.452H176.547V5.036H170.463V12.452H166.143V17.348H170.463V29.192C170.463 34.628 173.559 36.86 177.735 36.572C178.959 36.5 181.155 36.176 183.099 35.312ZM204.477 36.248V20.408C204.477 14.396 200.445 11.768 195.441 11.768H193.929C188.637 11.768 185.109 14.936 185.109 18.428H191.265C191.265 17.348 192.597 16.7 193.929 16.7H195.261C196.701 16.7 198.357 17.744 198.357 19.652V20.192C197.565 19.94 196.521 19.796 195.801 19.796H192.993C188.277 19.796 184.893 22.964 184.893 26.996V28.904C184.893 33.044 188.277 36.536 192.921 36.536H195.837C196.665 36.536 197.601 36.248 198.465 35.708V36.248H204.477ZM198.357 30.344C198.357 31.028 197.205 31.604 196.485 31.568H193.569C192.057 31.568 191.013 30.452 191.013 28.904V27.032C191.013 25.556 192.057 24.8 193.569 24.8H195.981C196.953 24.8 197.889 24.98 198.357 25.34V30.344ZM215.423 8.096C215.423 4.964 213.983 4.28 211.643 4.28C209.303 4.28 207.863 4.964 207.863 8.096C207.863 11.228 209.303 11.912 211.643 11.912C213.983 11.912 215.423 11.228 215.423 8.096ZM214.703 36.176V14.36H208.619V36.176H214.703ZM232.511 17.06V11.876C228.335 11.696 226.211 12.812 224.987 14.036V12.524H218.867V36.248H224.987V23C224.987 19.976 227.435 16.844 232.511 17.06ZM252.915 29.264C252.915 24.62 250.539 22.82 246.111 21.884L241.755 20.984C240.495 20.696 239.991 19.868 239.991 18.608C239.991 17.42 241.035 16.7 242.475 16.7H243.843C245.391 16.7 246.291 17.996 246.363 19.544H252.555C252.447 14.828 249.351 11.768 243.699 11.768H242.439C236.787 11.768 233.619 14.216 233.619 18.896C233.619 23.684 236.427 25.196 239.811 25.916L244.887 26.996C246.255 27.248 246.651 28.004 246.651 29.228C246.651 30.488 246.363 31.64 244.347 31.64H242.295C240.711 31.64 239.847 30.56 239.811 29.12H233.547C233.727 33.944 237.903 36.608 241.719 36.608H244.383C249.927 36.608 252.915 33.62 252.915 29.264Z" fill="#3F7EF9"/>
</svg>
