<svg width="137" height="24" viewBox="0 0 137 24" fill="none" xmlns="http://www.w3.org/2000/svg">
<rect y="16.7273" width="17.7727" height="6.27273" rx="3.13636" fill="#405CD6" fill-opacity="0.94"/>
<path d="M7.31818 11.5C7.31818 9.76786 8.72237 8.36366 10.4545 8.36366H21.9545C23.6867 8.36366 25.0909 9.76786 25.0909 11.5C25.0909 13.2322 23.6867 14.6364 21.9545 14.6364H10.4545C8.72238 14.6364 7.31818 13.2322 7.31818 11.5Z" fill="#5BA8E1" fill-opacity="0.94"/>
<rect x="14.6364" width="17.7727" height="6.27273" rx="3.13636" fill="#6ACDEB" fill-opacity="0.94"/>
<path d="M50.844 14.39V8.216C50.844 5.39 48.756 3.518 45.75 3.518H39.864V19.088H42.942V18.53C43.374 18.872 43.896 19.088 44.346 19.088H45.75C48.756 19.088 50.844 17.198 50.844 14.39ZM47.766 14.534C47.766 15.794 46.758 16.604 45.624 16.604H42.942V5.984H45.624C46.758 5.984 47.766 6.812 47.766 8.09V14.534ZM62.0092 13.184V11.564C62.0092 8.936 60.3712 6.884 57.3472 6.884H56.7172C53.8012 6.884 52.1272 8.846 52.1272 11.474V14.678C52.1272 17.81 54.3592 19.304 56.7892 19.304H57.5992C59.7232 19.304 61.4692 17.99 61.9192 15.794H58.8232C58.6432 16.352 58.2832 16.82 57.4912 16.82H56.7712C55.9432 16.82 55.1872 16.136 55.1872 14.948V14.84H60.2632C61.4512 14.84 62.0092 14.192 62.0092 13.184ZM58.9492 12.374H55.1872V11.708C55.1872 10.07 55.8532 9.35 56.7352 9.35H57.3652C58.2472 9.35 58.9492 10.088 58.9492 11.672V12.374ZM73.4159 7.262H70.1939L67.8899 14.714L65.5679 7.262H62.3459L66.3599 19.124H69.3479L73.4159 7.262ZM85.0259 14.534C85.0259 11.6 83.2439 10.574 80.7059 9.944L78.6719 9.404C77.9159 9.206 77.2499 8.99 77.2499 7.568C77.2499 6.434 77.9699 5.804 78.9059 5.804H79.6079C80.7419 5.804 81.4619 6.65 81.4619 8.162H84.5219C84.5219 4.976 82.6319 3.338 79.6259 3.338H79.0859C76.1339 3.338 74.1179 4.724 74.1179 7.64C74.1179 10.556 75.6659 11.528 78.1319 12.104L80.3279 12.626C81.0299 12.788 81.9659 13.148 81.9659 14.534C81.9659 16.046 81.1919 16.784 80.0039 16.784H79.1039C77.9699 16.784 77.2679 15.938 77.2679 14.462H74.2079C74.2079 17.612 75.9899 19.268 79.0859 19.268H80.0399C83.0639 19.268 85.0259 17.432 85.0259 14.534ZM94.0496 18.656V16.136C92.8256 16.658 92.0876 16.748 91.5656 16.766C90.8456 16.784 90.7736 16.442 90.7736 15.344V9.674H93.9056V7.226H90.7736V3.518H87.7316V7.226H85.5716V9.674H87.7316V15.596C87.7316 18.314 89.2796 19.43 91.3676 19.286C91.9796 19.25 93.0776 19.088 94.0496 18.656ZM104.738 19.124V11.204C104.738 8.198 102.722 6.884 100.22 6.884H99.4643C96.8183 6.884 95.0543 8.468 95.0543 10.214H98.1323C98.1323 9.674 98.7983 9.35 99.4643 9.35H100.13C100.85 9.35 101.678 9.872 101.678 10.826V11.096C101.282 10.97 100.76 10.898 100.4 10.898H98.9963C96.6383 10.898 94.9463 12.482 94.9463 14.498V15.452C94.9463 17.522 96.6383 19.268 98.9603 19.268H100.418C100.832 19.268 101.3 19.124 101.732 18.854V19.124H104.738ZM101.678 16.172C101.678 16.514 101.102 16.802 100.742 16.784H99.2843C98.5283 16.784 98.0063 16.226 98.0063 15.452V14.516C98.0063 13.778 98.5283 13.4 99.2843 13.4H100.49C100.976 13.4 101.444 13.49 101.678 13.67V16.172ZM110.212 5.048C110.212 3.482 109.492 3.14 108.322 3.14C107.152 3.14 106.432 3.482 106.432 5.048C106.432 6.614 107.152 6.956 108.322 6.956C109.492 6.956 110.212 6.614 110.212 5.048ZM109.852 19.088V8.18H106.81V19.088H109.852ZM118.755 9.53V6.938C116.667 6.848 115.605 7.406 114.993 8.018V7.262H111.933V19.124H114.993V12.5C114.993 10.988 116.217 9.422 118.755 9.53ZM128.958 15.632C128.958 13.31 127.77 12.41 125.556 11.942L123.378 11.492C122.748 11.348 122.496 10.934 122.496 10.304C122.496 9.71 123.018 9.35 123.738 9.35H124.422C125.196 9.35 125.646 9.998 125.682 10.772H128.778C128.724 8.414 127.176 6.884 124.35 6.884H123.72C120.894 6.884 119.31 8.108 119.31 10.448C119.31 12.842 120.714 13.598 122.406 13.958L124.944 14.498C125.628 14.624 125.826 15.002 125.826 15.614C125.826 16.244 125.682 16.82 124.674 16.82H123.648C122.856 16.82 122.424 16.28 122.406 15.56H119.274C119.364 17.972 121.452 19.304 123.36 19.304H124.692C127.464 19.304 128.958 17.81 128.958 15.632Z" fill="#3F7EF9"/>
</svg>
