<svg xmlns="http://www.w3.org/2000/svg" version="1.1" xmlns:xlink="http://www.w3.org/1999/xlink" xmlns:svgjs="http://svgjs.dev/svgjs" viewBox="0 0 1920 1080"><rect width="1920" height="1080" fill="#a3d0ff"></rect><g transform="matrix(0.8131727983645296,0.8131727983645295,-0.8131727983645295,0.8131727983645296,618.4674246868974,-679.7591975467944)"><path d="M0,-1080C0,-972,0,-648,0,-432C0,-216,0,0,0,216C0,432,0,648,0,864C0,1080,0,1296,0,1512C0,1728,0,2052,0,2160L 1920 2160 L 1920 -1080 Z" fill="url(&quot;#SvgjsLinearGradient1018&quot;)"></path><path d="M320,-1080C320,-972,320,-648,320,-432C320,-216,320,0,320,216C320,432,320,648,320,864C320,1080,320,1296,320,1512C320,1728,320,2052,320,2160L 1920 2160 L 1920 -1080 Z" fill="url(&quot;#SvgjsLinearGradient1019&quot;)"></path><path d="M640,-1080C640,-1002.8571428571429,640.0000000000001,-771.4285714285716,640.0000000000001,-617.1428571428572C640.0000000000001,-462.85714285714295,640,-308.57142857142867,640,-154.28571428571433C640,-2.842170943040401e-14,640,154.28571428571428,640,308.57142857142856C640,462.85714285714283,640,617.1428571428571,640,771.4285714285713C640,925.7142857142856,640,1080,640,1234.2857142857142C640,1388.5714285714284,640,1542.8571428571427,640,1697.1428571428569C640,1851.428571428571,640,2082.8571428571427,640,2160L 1920 2160 L 1920 -1080 Z" fill="url(&quot;#SvgjsLinearGradient1020&quot;)"></path><path d="M960,-1080C960,-945,960,-540,960,-270C960,0,960,270,960,540C960,810,960,1080,960,1350C960,1620,960,2025,960,2160L 1920 2160 L 1920 -1080 Z" fill="url(&quot;#SvgjsLinearGradient1021&quot;)"></path><path d="M1280,-1080C1280,-972,1280,-648,1280,-432C1280,-216,1280,0,1280,216C1280,432,1280,648,1280,864C1280,1080,1280,1296,1280,1512C1280,1728,1280,2052,1280,2160L 1920 2160 L 1920 -1080 Z" fill="url(&quot;#SvgjsLinearGradient1022&quot;)"></path><path d="M1600,-1080C1600,-972,1600,-648,1600,-432C1600,-216,1600,0,1600,216C1600,432,1600,648,1600,864C1600,1080,1600,1296,1600,1512C1600,1728,1600,2052,1600,2160L 1920 2160 L 1920 -1080 Z" fill="url(&quot;#SvgjsLinearGradient1023&quot;)"></path></g><defs><linearGradient x1="0.1" y1="0" x2="0" y2="1" id="SvgjsLinearGradient1018"><stop stop-color="#a3d0ff" offset="0"></stop><stop stop-color="#a3dfff" offset="0"></stop></linearGradient><linearGradient x1="0.1" y1="0" x2="0" y2="1" id="SvgjsLinearGradient1019"><stop stop-color="#b5d9ff" offset="0"></stop><stop stop-color="#b5e5ff" offset="0.16666666666666666"></stop></linearGradient><linearGradient x1="0.1" y1="0" x2="0" y2="1" id="SvgjsLinearGradient1020"><stop stop-color="#c8e3ff" offset="0"></stop><stop stop-color="#c8ecff" offset="0.3333333333333333"></stop></linearGradient><linearGradient x1="0.1" y1="0" x2="0" y2="1" id="SvgjsLinearGradient1021"><stop stop-color="#daecff" offset="0"></stop><stop stop-color="#daf2ff" offset="0.5"></stop></linearGradient><linearGradient x1="0.1" y1="0" x2="0" y2="1" id="SvgjsLinearGradient1022"><stop stop-color="#ecf6ff" offset="0"></stop><stop stop-color="#ecf9ff" offset="0.6666666666666666"></stop></linearGradient><linearGradient x1="0.1" y1="0" x2="0" y2="1" id="SvgjsLinearGradient1023"><stop stop-color="#ffffff" offset="0"></stop><stop stop-color="#ffffff" offset="0.8333333333333334"></stop></linearGradient></defs></svg>